<?xml version="1.0" encoding="UTF-8" standalone="no"?>
<svg
   xmlns:dc="http://purl.org/dc/elements/1.1/"
   xmlns:cc="http://creativecommons.org/ns#"
   xmlns:rdf="http://www.w3.org/1999/02/22-rdf-syntax-ns#"
   xmlns:svg="http://www.w3.org/2000/svg"
   xmlns="http://www.w3.org/2000/svg"
   width="223.30243"
   height="168.45038"
   viewBox="0 0 59.0821 44.569164"
   version="1.1"
   id="svg8">
  <defs
     id="defs2" />
  <metadata
     id="metadata5">
    <rdf:RDF>
      <cc:Work
         rdf:about="">
        <dc:format>image/svg+xml</dc:format>
        <dc:type
           rdf:resource="http://purl.org/dc/dcmitype/StillImage" />
        <dc:title></dc:title>
      </cc:Work>
    </rdf:RDF>
  </metadata>
  <path
     id="path4614"
     d="m 36.23814,34.16289 11.43788,-0.0668 c 5.98233,-3e-5 10.83188,-6.20451 10.83167,-12.18683 -3e-5,-5.98215 -4.84951,-10.83163 -10.83167,-10.83167 -0.43224,0.004 -0.86382,0.0353 -1.29242,0.0916 C 44.50352,4.8862104 38.72519,0.58001036 32.16696,0.57446036 v -5e-5 c -4.19713,0.006 -8.19563,1.78823004 -11.00669,4.90493004 -0.80144,-0.20157 -1.62429,-0.30553 -2.45067,-0.30965 -3.43465,0.003 -6.64018,1.72364 -8.53941,4.58541 C 4.5647304,11.02176 0.58174044,15.99868 0.57441044,21.74547 0.57455044,28.54338 6.0854604,34.05409 12.88338,34.054 l 10.65946,0.10892"
     style="fill:none;fill-opacity:1;fill-rule:evenodd;stroke:#ffffff;stroke-width:1.14882088;stroke-linecap:round;stroke-linejoin:round;stroke-miterlimit:4;stroke-dasharray:none;stroke-opacity:1" />
  <path
     id="path5021"
     d="M 29.73007,22.04824 V 44.04137"
     style="fill:none;fill-opacity:1;stroke:#ffffff;stroke-width:1.04076004;stroke-linecap:round;stroke-linejoin:round;stroke-miterlimit:4;stroke-dasharray:none;stroke-opacity:1" />
  <path
     id="path5023"
     d="M 29.98041,12.818 A 0.66607872,0.45957399 0 0 0 29.3853,13.11283 L 17.0062,27.90659 a 0.66607872,0.45957399 0 1 0 1.15315,0.45952 l 11.8523,-14.16369 11.85227,14.16369 a 0.66607872,0.45957399 0 1 0 1.15252,-0.45952 L 30.63927,13.11508 a 0.66607872,0.45957399 0 0 0 0,-4.5e-4 0.66607872,0.45957399 0 0 0 -0.5782,-0.29528 0.66607872,0.45957399 0 0 0 -0.03,-8.7e-4 0.66607872,0.45957399 0 0 0 -0.009,-4.5e-4 0.66607872,0.45957399 0 0 0 -0.009,4.5e-4 0.66607872,0.45957399 0 0 0 -0.0339,-4.5e-4 z"
     style="color:#ffffff;font-style:normal;font-variant:normal;font-weight:normal;font-stretch:normal;font-size:medium;line-height:normal;font-family:sans-serif;font-variant-ligatures:normal;font-variant-position:normal;font-variant-caps:normal;font-variant-numeric:normal;font-variant-alternates:normal;font-feature-settings:normal;text-indent:0;text-align:start;text-decoration:none;text-decoration-line:none;text-decoration-style:solid;text-decoration-color:#ffffff;letter-spacing:normal;word-spacing:normal;text-transform:none;writing-mode:lr-tb;direction:ltr;text-orientation:mixed;dominant-baseline:auto;baseline-shift:baseline;text-anchor:start;white-space:normal;shape-padding:0;clip-rule:nonzero;display:inline;overflow:visible;visibility:visible;opacity:1;isolation:auto;mix-blend-mode:normal;color-interpolation:sRGB;color-interpolation-filters:linearRGB;solid-color:#ffffff;solid-opacity:1;vector-effect:none;fill:#ffffff;fill-opacity:1;fill-rule:nonzero;stroke:none;stroke-width:1.10643792;stroke-linecap:round;stroke-linejoin:round;stroke-miterlimit:4;stroke-dasharray:none;stroke-dashoffset:0;stroke-opacity:1;color-rendering:auto;image-rendering:auto;shape-rendering:auto;text-rendering:auto;enable-background:accumulate" />
</svg>
